<?xml version="1.0" encoding="UTF-8" standalone="no"?>
<!-- Generator: Adobe Illustrator 18.1.1, SVG Export Plug-In . SVG Version: 6.00 Build 0)  -->

<svg
   xmlns:dc="http://purl.org/dc/elements/1.1/"
   xmlns:cc="http://creativecommons.org/ns#"
   xmlns:rdf="http://www.w3.org/1999/02/22-rdf-syntax-ns#"
   xmlns:svg="http://www.w3.org/2000/svg"
   xmlns="http://www.w3.org/2000/svg"
   xmlns:sodipodi="http://sodipodi.sourceforge.net/DTD/sodipodi-0.dtd"
   xmlns:inkscape="http://www.inkscape.org/namespaces/inkscape"
   version="1.1"
   id="Layer_1"
   x="0px"
   y="0px"
   width="584.28003"
   height="126.12"
   viewBox="0 0 584.28003 126.12"
   enable-background="new 0 0 700 180"
   xml:space="preserve"
   inkscape:version="0.91 r13725"
   sodipodi:docname="maximlogo.svg"><metadata
     id="metadata3343"><rdf:RDF><cc:Work
         rdf:about=""><dc:format>image/svg+xml</dc:format><dc:type
           rdf:resource="http://purl.org/dc/dcmitype/StillImage" /><dc:title></dc:title></cc:Work></rdf:RDF></metadata><defs
     id="defs3341"><filter
       inkscape:label="Black Light"
       inkscape:menu="Color"
       inkscape:menu-tooltip="Light areas turn to black"
       style="color-interpolation-filters:sRGB"
       id="filter3345"><feColorMatrix
         type="luminanceToAlpha"
         result="result2"
         id="feColorMatrix3347" /><feComposite
         in2="SourceGraphic"
         operator="arithmetic"
         in="result2"
         k3="2"
         result="result4"
         id="feComposite3349"
         k1="0"
         k2="0"
         k4="0" /><feBlend
         in="result4"
         mode="multiply"
         result="result3"
         in2="result2"
         id="feBlend3351" /><feComposite
         in2="SourceGraphic"
         operator="in"
         in="result3"
         id="feComposite3353" /></filter></defs><sodipodi:namedview
     pagecolor="#ffffff"
     bordercolor="#666666"
     borderopacity="1"
     objecttolerance="10"
     gridtolerance="10"
     guidetolerance="10"
     inkscape:pageopacity="0"
     inkscape:pageshadow="2"
     inkscape:window-width="1707"
     inkscape:window-height="897"
     id="namedview3339"
     showgrid="false"
     inkscape:zoom="2.0203051"
     inkscape:cx="288.83938"
     inkscape:cy="31.564002"
     inkscape:window-x="-8"
     inkscape:window-y="-8"
     inkscape:window-maximized="1"
     inkscape:current-layer="Layer_1"
     fit-margin-top="0"
     fit-margin-left="0"
     fit-margin-right="0"
     fit-margin-bottom="0" /><path
     d="m 445.29,115.61 -27.3,0 0,-0.7 c 6.9,-2.6 10.8,-4.6 10.8,-13.3 l 0,-66 c 0,-12.9 -1.3,-16.7 -10.2,-21.3 l 0,-0.7 25.2,0 33.3,78.9 32.9,-78.9 24.6,0 0,0.7 c -9.1,4.6 -10.5,8.4 -10.5,21.3 l 0,66 c 0,8.2 2.9,10.8 11.5,13.3 l 0,0.7 -37.3,0 0,-0.7 c 8,-2.6 10.9,-5.1 10.9,-13.3 l 0,-72.2 -37.3,85.3 -1.5,0 -37,-86.7 0.7,73.7 c 0.2,8.7 3.8,10.9 11.3,13.3 l 0,0.6 z m -75.7,-101.3 0,-0.7 36.2,0 0,0.7 c -9.6,2.8 -10.3,5.1 -10.3,22.7 l 0,55 c 0,17.8 0.5,20 10.3,22.9 l 0,0.7 -36.2,0 0,-0.7 c 9.8,-2.9 10.3,-5.1 10.3,-22.9 l 0,-55 c 0.1,-17.6 -0.6,-19.9 -10.3,-22.7 z m -74.7,101.3 -25.2,0 0,-0.7 c 6.4,-2.3 8.5,-5.1 14,-13.1 l 24.2,-34.9 -23.6,-38.6 c -4.7,-7.7 -8.2,-10.5 -16.4,-14 l 0,-0.7 39.6,0 0,0.7 c -8.9,2.3 -10.5,4.6 -5.1,13.4 l 15.9,26 16,-26.4 c 5.3,-8.5 4.9,-11.1 -5.4,-13.1 l 0,-0.6 27.1,0 0,0.7 c -6.9,2.3 -9.8,4.7 -15.4,13.1 l -20.4,29.6 27.3,44.4 c 4.6,7.5 8.5,10.5 16.2,13.4 l 0,0.7 -39.8,0 0,-0.7 c 9.5,-2.3 10.9,-4.2 5.3,-13.4 l -19.3,-31.3 -20.1,31.7 c -5.3,8.4 -5.3,11.1 5.1,13.1 l 0,0.7 0,0 z m -81,-80.2 -14.2,40.6 29.1,0 -14.9,-40.6 z m -137.899998,80.2 -27.3,0 0,-0.7 c 6.9,-2.6 10.8,-4.6 10.8,-13.3 l 0,-66 c 0,-12.9 -1.3,-16.7 -10.2,-21.3 l 0,-0.7 25.2,0 33.299998,78.9 32.9,-78.9 24.6,0 0,0.7 c -9.1,4.6 -10.5,8.4 -10.5,21.3 l 0,66 c 0,8.2 2.9,10.8 11.5,13.3 l 0,0.7 -37.3,0 0,-0.7 c 8,-2.6 10.9,-5.1 10.9,-13.3 l 0,-72.2 -37.3,85.4 -1.5,0 -37.099998,-86.8 0.7,73.7 c 0.2,8.7 3.8,10.9 11.3,13.3 l 0,0.6 0,0 z m 122.399998,0 -26.2,0 0,-0.7 c 7.1,-1.8 9.3,-3.8 12.9,-13.4 l 33.9,-91 1.5,0 34,90.2 c 3.3,8.5 4.7,12.1 10.9,14.2 l 0,0.7 -35.1,0 0,-0.7 c 10,-2.2 11.6,-3.8 8,-13.4 l -8,-21.5 -32.1,0 -7.5,21.5 c -3.4,9.6 -2.2,11.3 7.7,13.4 l 0,0.7 z"
     id="path3337"
     style="fill:#ffffff;filter:url(#filter3345)"
     inkscape:connector-curvature="0" /></svg>